HIERARCHY
ROOT RootJoint
{
    OFFSET   0.000000   0.000000   0.000000
    CHANNELS 6 Xposition Yposition Zposition Xrotation Yrotation Zrotation
    JOINT pelvis_lowerback
    {
        OFFSET   0.000000   0.093605   0.000000
        CHANNELS 3 Xrotation Yrotation Zrotation
        JOINT lowerback_torso
        {
            OFFSET   0.000000   0.100000   0.000000
            CHANNELS 3 Xrotation Yrotation Zrotation
            JOINT torso_head
            {
                OFFSET   0.000000   0.282350   0.000000
                CHANNELS 3 Xrotation Yrotation Zrotation
                End Site
                {
                    OFFSET   0.000000   0.192650   0.000000
                }
            }
            JOINT rTorso_Clavicle
            {
                OFFSET  -0.001000   0.157500   0.000000
                CHANNELS 3 Xrotation Yrotation Zrotation
                JOINT rShoulder
                {
                    OFFSET  -0.117647   0.000000   0.000000
                    CHANNELS 3 Xrotation Yrotation Zrotation
                    JOINT rElbow
                    {
                        OFFSET  -0.245000   0.000000   0.000000
                        CHANNELS 3 Xrotation Yrotation Zrotation
                        JOINT rWrist
                        {
                            OFFSET  -0.240000   0.000000   0.000000
                            CHANNELS 3 Xrotation Yrotation Zrotation
                            End Site
                            {
                                OFFSET  -0.116353  -0.002500   0.000000
                            }
                        }
                    }
                }
            }
            JOINT lTorso_Clavicle
            {
                OFFSET   0.001000   0.157500   0.000000
                CHANNELS 3 Xrotation Yrotation Zrotation
                JOINT lShoulder
                {
                    OFFSET   0.117647   0.000000   0.000000
                    CHANNELS 3 Xrotation Yrotation Zrotation
                    JOINT lElbow
                    {
                        OFFSET   0.245000   0.000000   0.000000
                        CHANNELS 3 Xrotation Yrotation Zrotation
                        JOINT lWrist
                        {
                            OFFSET   0.240000   0.000000   0.000000
                            CHANNELS 3 Xrotation Yrotation Zrotation
                            End Site
                            {
                                OFFSET   0.116353  -0.002500   0.000000
                            }
                        }
                    }
                }
            }
        }
    }
    JOINT rHip
    {
        OFFSET  -0.100000  -0.051395   0.000000
        CHANNELS 3 Xrotation Yrotation Zrotation
        JOINT rKnee
        {
            OFFSET   0.000000  -0.410000   0.000000
            CHANNELS 3 Xrotation Yrotation Zrotation
            JOINT rAnkle
            {
                OFFSET   0.000000  -0.390000   0.000000
                CHANNELS 3 Xrotation Yrotation Zrotation
                JOINT rToeJoint
                {
                    OFFSET   0.000000  -0.050000   0.130000
                    CHANNELS 3 Xrotation Yrotation Zrotation
                    End Site
                    {
                        OFFSET  -0.010000   0.002000   0.060000
                    }
                }
            }
        }
    }
    JOINT lHip
    {
        OFFSET   0.100000  -0.051395   0.000000
        CHANNELS 3 Xrotation Yrotation Zrotation
        JOINT lKnee
        {
            OFFSET   0.000000  -0.410000   0.000000
            CHANNELS 3 Xrotation Yrotation Zrotation
            JOINT lAnkle
            {
                OFFSET   0.000000  -0.390000   0.000000
                CHANNELS 3 Xrotation Yrotation Zrotation
                JOINT lToeJoint
                {
                    OFFSET   0.000000  -0.050000   0.130000
                    CHANNELS 3 Xrotation Yrotation Zrotation
                    End Site
                    {
                        OFFSET   0.010000   0.002000   0.060000
                    }
                }
            }
        }
    }
}
MOTION
Frames: 15
Frame Time:   0.008333
 -2.324672   0.919300   3.975689   0.741945   2.396013  -1.009706   3.366344   0.620025   0.347487   0.149689   0.959193   0.863942  -3.725086   3.061651  -1.218717  -0.682186  -0.099439   4.152626 -19.295701   2.474162  30.029736 -179.992430  56.682711 179.988866   9.444140   7.533290 -17.987925  -3.031148   3.591163   1.440104 -23.241249   7.807605 -31.217142 -179.997617 -62.734281 -179.998936   5.855387  -8.735307  16.342382  -3.787059  -3.099765  -1.888223   3.920299  -0.000002   0.000003  -0.284733  -1.811276   2.148355  -0.730116   0.000000  -0.000000   5.464916  -6.271983   1.849850   0.917486  -0.000042   0.000082  -7.165734   1.019083   3.713716   0.025291   0.000107  -0.000045
 -2.324899   0.919347   3.975323   0.771130   2.640990  -0.992726   3.475669   0.648892   0.306289   0.119021   0.981209   0.878274  -3.709191   3.147951  -1.203461  -0.705134  -0.005987   4.110723 -19.272564   2.830338  30.042465 -179.992368  56.943440 179.989005   9.374591   7.572059 -17.840680  -3.033247   3.676297   1.529366 -23.211705   7.968146 -31.119015 -179.998026 -62.846494 -179.999457   5.798273  -8.763304  16.146303  -3.811336  -3.174312  -1.903064   3.934042  -0.000002   0.000023  -0.302169  -1.981629   2.138916  -0.693866   0.000000  -0.000000   5.297429  -6.369185   1.864337   1.080116  -0.000065   0.000284  -7.182123   0.869449   3.629689   0.025079   0.000085  -0.000036
 -2.325181   0.919390   3.975039   0.797213   2.915117  -0.978070   3.576518   0.699287   0.264896   0.086494   1.018934   0.888126  -3.690974   3.228588  -1.187054  -0.737566   0.089454   4.051380 -19.261237   3.171502  30.045494 -179.992355  57.189075 179.989208   9.307119   7.608473 -17.706028  -3.040178   3.767356   1.621196 -23.189900   8.125257 -31.018966 -179.998437 -62.954560 -179.999979   5.743471  -8.787542  15.994278  -3.827332  -3.264168  -1.913504   3.957560  -0.000004   0.000056  -0.326623  -2.165825   2.131393  -0.693869   0.000000  -0.000000   5.138497  -6.480215   1.887096   1.238109  -0.000087   0.000460  -7.200692   0.705321   3.549629   0.024996   0.000068  -0.000029
 -2.325515   0.919430   3.974831   0.823077   3.199788  -0.967322   3.666395   0.770931   0.223512   0.051401   1.076376   0.893651  -3.673520   3.304396  -1.171123  -0.773329   0.187195   3.986469 -19.255621   3.496269  30.045120 -179.992424  57.418441 179.989478   9.242442   7.643168 -17.576845  -3.047654   3.862953   1.711478 -23.170955   8.277037 -30.920499 -179.998826 -63.055575 179.999552   5.691093  -8.809079  15.870405  -3.837384  -3.362641  -1.917349   3.983756  -0.000006   0.000088  -0.358392  -2.352454   2.126722  -0.693872   0.000000  -0.000000   4.989943  -6.597560   1.917908   1.385359  -0.000105   0.000590  -7.219976   0.537794   3.474837   0.025346   0.000055  -0.000023
 -2.325892   0.919466   3.974687   0.849258   3.488410  -0.960173   3.746393   0.859610   0.181504   0.014241   1.150485   0.895442  -3.657501   3.375688  -1.156067  -0.810185   0.286808   3.921189 -19.253458   3.804813  30.044057 -179.992573  57.632605 179.989810   9.180420   7.676683 -17.449064  -3.054766   3.961588   1.798002 -23.153617   8.423478 -30.825093 -179.999178 -63.149797 179.999156   5.640996  -8.828516  15.766924  -3.842664  -3.466433  -1.915030   4.010168  -0.000009   0.000113  -0.394726  -2.538194   2.124367  -0.693875   0.000000  -0.000000   4.850934  -6.718112   1.955325   1.522203  -0.000119   0.000679  -7.239928   0.370182   3.405120   0.026194   0.000044  -0.000019
 -2.326303   0.919499   3.974600   0.875763   3.777050  -0.956149   3.818017   0.961270   0.138701  -0.023996   1.237594   0.893935  -3.642984   3.442687  -1.142000  -0.846954   0.387346   3.857760 -19.253537   4.097314  30.043333 -179.992788  57.832908 179.990192   9.127444   7.729617 -17.324810  -3.061244   4.061786   1.879746 -23.137362   8.564473 -30.733546 -179.999485 -63.237722 179.998838   5.593062  -8.846206  15.679775  -3.844177  -3.573363  -1.907343   4.036082  -0.000011   0.000132  -0.434173  -2.721221   2.123899  -0.693877   0.000000  -0.000000   4.720729  -6.839929   1.997966   1.649368  -0.000130   0.000734  -7.260427   0.204328   3.340076   0.027527   0.000035  -0.000015
 -2.326741   0.919528   3.974560   0.902273   4.063087  -0.954127   3.882493   1.072208   0.094594  -0.062412   1.334223   0.889257  -3.629723   3.505602  -1.128914  -0.883138   0.487754   3.797055 -19.255311   4.374465  30.043292 -179.993063  58.019262 179.990626   9.069116   7.757133 -17.196600  -3.067027   4.162207   1.956441 -23.121950   8.699834 -30.646228 -179.999744 -63.319821 179.998596   5.547179  -8.862417  15.605939  -3.842751  -3.681731  -1.895802   4.062323  -0.000014   0.000147  -0.472651  -2.900239   2.124494  -0.716907   0.000005  -0.000000   4.598928  -6.961716   2.043920   1.767554  -0.000137   0.000761  -7.281386   0.041383   3.279252   0.029280   0.000028  -0.000012
 -2.327208   0.919574   3.974437   0.941879   4.569876  -0.946124   3.994206   1.132322   0.051681  -0.156936   1.376211   0.884476  -3.595901   3.573223  -1.137139  -0.940144   0.547875   3.713503 -19.368499   4.673086  30.002796 -179.993207  58.229041 179.990974   8.987929   7.787735 -17.039862  -3.121963   4.239289   2.016177 -23.224162   8.852939 -30.504674 179.999978 -63.366590 179.998430   5.470807  -8.880447  15.419612  -3.834526  -3.832460  -1.896870   4.108397  -0.000017   0.000261  -0.537915  -3.257326   2.104419  -0.787059   0.000003  -0.000000   4.380806  -7.167165   2.100598   1.982682  -0.000184   0.001190  -7.307468  -0.260122   3.140814   0.018025   0.000017  -0.000009
 -2.327700   0.919622   3.974349   0.983419   5.112401  -0.941667   4.100889   1.222594   0.011198  -0.252925   1.436034   0.875439  -3.559863   3.637802  -1.145885  -1.011205   0.613149   3.607988 -19.490424   4.960701  29.952537 -179.993318  58.426522 179.991267   8.909904   7.811452 -16.925158  -3.186978   4.315993   2.090195 -23.334784   8.995101 -30.360598 179.999772 -63.405770 179.998330   5.404730  -8.919766  15.299041  -3.823168  -4.004739  -1.895350   4.158430  -0.000020   0.000372  -0.623932  -3.629671   2.090391  -0.780445   0.000002  -0.000000   4.166054  -7.390858   2.163352   2.183227  -0.000216   0.001525  -7.326786  -0.578960   3.011034   0.009004   0.000010  -0.000008
 -2.328209   0.919667   3.974308   1.025772   5.659263  -0.939960   4.198115   1.340153  -0.030490  -0.347727   1.520851   0.863458  -3.524956   3.699116  -1.153966  -1.086225   0.687189   3.495983 -19.611702   5.238497  29.901853 -179.993449  58.610996 179.991535   8.836312   7.837300 -16.821497  -3.251489   4.397962   2.170386 -23.442864   9.130893 -30.217480 179.999622 -63.440473 179.998278   5.337559  -8.941139  15.214344  -3.808789  -4.185822  -1.890445   4.207924  -0.000023   0.000457  -0.712508  -3.997809   2.078727  -0.776331   0.000001  -0.000000   3.961913  -7.619410   2.228767   2.366264  -0.000235   0.001742  -7.342372  -0.897184   2.890789   0.001872   0.000006  -0.000006
 -2.328725   0.919708   3.974315   1.068531   6.213935  -0.940086   4.285987   1.474084  -0.073540  -0.440450   1.623408   0.849094  -3.492206   3.756922  -1.161491  -1.161075   0.767104   3.384995 -19.728975   5.504936  29.853931 -179.993618  58.783179 179.991802   8.767033   7.866569 -16.718888  -3.312796   4.484103   2.250711 -23.545424   9.261730 -30.078318 179.999511 -63.472693 179.998253   5.273317  -8.960369  15.152216  -3.788731  -4.353836  -1.888779   4.252734  -0.000022   0.000517  -0.804489  -4.339219   2.066138  -0.771982   0.000001   0.000002   3.766446  -7.854963   2.295388   2.535444  -0.000244   0.001877  -7.355303  -1.216264   2.778907  -0.003652   0.000003  -0.000005
 -2.329243   0.919744   3.974367   1.111626   6.786209  -0.940857   4.365225   1.615101  -0.118372  -0.530346   1.735377   0.832683  -3.461806   3.811180  -1.168559  -1.233554   0.849237   3.278433 -19.840652   5.758441  29.809721 -179.993827  58.943789 179.992078   8.701636   7.898404 -16.616129  -3.370319   4.571688   2.328288 -23.641790   9.387181 -29.944950 179.999430 -63.502822 179.998252   5.211858  -8.978040  15.104639  -3.760974  -4.492509  -1.896770   4.291220  -0.000016   0.000560  -0.901654  -4.638709   2.052323  -0.473859   0.000023   0.000356   3.577172  -8.102393   2.362213   2.692808  -0.000247   0.001960  -7.365134  -1.541224   2.674595  -0.007596   0.000002  -0.000004
 -2.329759   0.919715   3.974466   1.159464   7.376372  -0.907029   4.432499   1.759226  -0.194050  -0.618393   1.852601   0.801495  -3.433182   3.861994  -1.175994  -1.302941   0.931676   3.176397 -19.946525   5.999368  29.770052 -179.994064  59.092364 179.992375   8.640099   7.933394 -16.513543  -3.425306   4.659159   2.408489 -23.733780   9.506302 -29.814669 179.999367 -63.532149 179.998255   5.152818  -8.994335  15.070820  -3.715060  -4.594988  -1.952205   4.298759  -0.000012   0.000480  -1.063969  -4.891951   2.034145  -0.420581   0.000029   0.000395   3.383257  -8.362748   2.390864   2.839433  -0.000242   0.002004  -7.370632  -1.873673   2.573849  -0.011313   0.000001  -0.000003
 -2.330330   0.919775   3.974445   1.193537   8.150775  -0.914101   4.568162   1.872979  -0.221917  -0.742275   1.936490   0.776741  -3.391336   3.899689  -1.182332  -1.393933   1.010828   3.035197 -20.156822   6.243595  29.718284 -179.993955  59.295213 179.992245   8.553325   7.954701 -16.379524  -3.538417   4.712145   2.456546 -23.931813   9.593859 -29.637657 179.999646 -63.514524 179.998868   5.064918  -8.978284  14.929427  -3.674451  -4.855534  -1.940915   4.385788  -0.000020   0.000777  -1.192036  -5.408610   1.992713  -0.480985   0.000014   0.000316   3.146950  -8.682447   2.478481   3.045205  -0.000275   0.002440  -7.366870  -2.329295   2.393272   0.302280   0.000197  -0.000005
 -2.330886   0.919829   3.974442   1.225688   8.950671  -0.919189   4.699335   2.016516  -0.253107  -0.861350   2.039993   0.750787  -3.347110   3.935939  -1.187160  -1.498448   1.105182   2.873609 -20.370772   6.486000  29.660106 -179.993843  59.489684 179.992109   8.462816   7.947161 -16.274628  -3.658954   4.758302   2.523859 -24.133307   9.667871 -29.461305 179.999920 -63.491110 179.999458   4.989846  -8.996307  14.842595  -3.633061  -5.136061  -1.933238   4.484854  -0.000025   0.001074  -1.335348  -5.930344   1.942643  -0.526316   0.000000   0.000253   2.918647  -9.017032   2.561448   3.232809  -0.000289   0.002734  -7.355657  -2.796208   2.228321   0.223116   0.000118  -0.000003
